<svg width="400" height="83" viewBox="0 0 400 83" fill="none" xmlns="http://www.w3.org/2000/svg">
<path d="M126.64 60.5573C126.64 63.3474 125.803 66.1641 124.062 68.597L98.0339 49.5357L86.4599 41.0602L81.0245 37.0799L80.7391 36.8709L58.527 20.6044L54.2024 17.4373L54.0364 17.3158L61.9556 6.2452L61.9939 6.19165L63.1268 7.02101L65.1015 8.46696L66.9784 9.84129L98.0334 32.5844L109.608 41.0599L121.025 49.4212C124.692 52.1072 126.64 56.3023 126.64 60.5573Z" fill="#80C6FF"/>
<path d="M58.5802 40.6846C58.5802 50.6713 50.581 58.7647 40.7112 58.7647C30.8415 58.7647 22.8423 50.6713 22.8423 40.6846C22.8423 40.0634 22.8735 39.4493 22.9334 38.8453C22.9358 38.8258 22.9381 38.8088 22.9406 38.7894C23.5641 32.7246 27.1523 27.5531 32.2108 24.7766C32.2012 24.9416 32.1965 25.1066 32.1965 25.2741V32.3121C32.1965 34.7242 33.1632 36.9084 34.7245 38.4908C36.2883 40.0708 38.447 41.0486 40.8312 41.0486C45.5995 41.0486 49.4659 37.1366 49.4659 32.3118V25.2739C49.4659 25.1551 49.4609 25.0361 49.4563 24.9196C54.793 27.9557 58.4314 33.6781 58.5752 40.2792C58.578 40.4154 58.5802 40.5487 58.5802 40.6846Z" fill="#0D51D9"/>
<path d="M45.6274 23.597V31.3314C45.6274 34.2897 43.4785 36.69 40.8303 36.69C38.1824 36.69 36.0332 34.2897 36.0332 31.3314V23.597C36.0332 23.4951 36.0357 23.3931 36.0406 23.2937C36.1077 23.2524 36.1748 23.2135 36.2444 23.1748C37.6715 22.8011 39.1682 22.6045 40.7106 22.6045C42.3245 22.6045 43.8886 22.8205 45.3732 23.2282C45.4573 23.2768 45.5411 23.3277 45.6227 23.3787C45.6252 23.4514 45.6274 23.5242 45.6274 23.597Z" fill="#80C6FF"/>
<path d="M140.427 0.954169L98.0334 32.6391L86.4598 41.1149L81.03 45.091L81.024 45.0954C81.0259 45.0757 81.0281 45.056 81.03 45.0363L80.7333 45.2535L58.8367 61.2894C58.7343 61.3841 58.6307 61.4778 58.5266 61.571L54.2026 64.7372C54.1525 64.767 54.1023 64.7969 54.0519 64.8262C50.0919 67.1268 45.5016 68.4427 40.6076 68.4427C25.6764 68.4427 13.572 56.1951 13.572 41.0875C13.572 25.9796 25.6764 13.7324 40.6076 13.7324C45.5638 13.7324 50.2086 15.0816 54.2023 17.4373C55.7483 18.3489 57.1962 19.4112 58.5269 20.6045L80.7388 36.8711L81.0245 37.0801C79.9842 26.2008 74.7499 16.563 66.9783 9.84135C59.8831 3.70549 50.6732 0 40.6076 0C18.1804 0 0 18.3953 0 41.0875C0 58.8022 11.0793 73.898 26.6091 79.6683C30.9726 81.2899 35.6883 82.1752 40.6076 82.1752C41.2242 82.1752 41.8372 82.1615 42.4472 82.1336C51.7921 81.7118 60.3156 78.0947 66.9756 72.3356L67.3605 72.0537L98.0339 49.5907L109.608 41.1149L137.39 20.1302C141.057 17.4445 143.005 13.2499 143.005 8.99443C143.005 6.20426 142.167 3.38774 140.427 0.954169Z" fill="#0D51D9"/>
<path d="M98.0884 49.5813L109.594 41.1145L112.208 42.9703L98.4957 49.8513L98.0884 49.5813Z" fill="#4D9EFF"/>
<path d="M172.215 9.86078H159.924V0.68457H172.215V9.86078ZM171.883 52.9851H160.256V15.2387H171.883V52.9851Z" fill="#1A5AD9"/>
<path d="M213.69 52.9858H201.997V34.2638C201.997 32.7402 201.936 31.222 201.815 29.7094C201.693 28.1969 201.466 27.0824 201.133 26.3649C200.735 25.5136 200.159 24.9029 199.406 24.5332C198.653 24.1635 197.645 23.9786 196.383 23.9786C195.431 23.9786 194.467 24.1582 193.493 24.5163C192.518 24.875 191.477 25.4464 190.37 26.2305V52.9858H178.743V15.2393H190.37V19.4072C192.275 17.7718 194.129 16.4945 195.935 15.5754C197.739 14.6568 199.738 14.1973 201.931 14.1973C205.74 14.1973 208.652 15.4131 210.668 17.8442C212.683 20.2759 213.69 23.7993 213.69 28.4152V52.9858V52.9858Z" fill="#1A5AD9"/>
<path d="M244.105 9.55817H243.208C242.765 9.42374 242.073 9.25046 241.132 9.03713C240.191 8.82452 239.299 8.71779 238.458 8.71779C236.11 8.71779 234.51 9.15477 233.658 10.0287C232.805 10.9027 232.379 12.5386 232.379 14.9361V15.2387H241.614V23.4401H232.777V52.9851H221.15V23.4399H216.5V15.2385H221.15V14.1966C221.15 9.58072 222.346 6.11858 224.738 3.81041C227.13 1.50271 230.751 0.348389 235.601 0.348389C237.284 0.348389 238.856 0.410386 240.318 0.533301C241.78 0.656697 243.042 0.818945 244.105 1.02065V9.55817H244.105Z" fill="#1A5AD9"/>
<path d="M269.274 26.365H268.31C267.867 26.2085 267.225 26.0909 266.384 26.0121C265.542 25.9339 264.612 25.8944 263.593 25.8944C262.375 25.8944 261.096 26.0741 259.756 26.4323C258.416 26.7909 257.115 27.2169 255.853 27.7095V52.9858H244.226V15.2394H255.853V20.6509C256.385 20.1583 257.121 19.5364 258.062 18.7854C259.003 18.0349 259.861 17.4357 260.637 16.9871C261.478 16.4719 262.458 16.0292 263.577 15.6594C264.695 15.2896 265.753 15.1047 266.749 15.1047C267.126 15.1047 267.546 15.1164 268.012 15.1383C268.477 15.1609 268.897 15.1946 269.274 15.2392V26.365H269.274Z" fill="#1A5AD9"/>
<path d="M292.248 48.9843C291.45 49.6566 290.736 50.2616 290.105 50.7994C289.474 51.3371 288.627 51.8749 287.564 52.4128C286.522 52.9284 285.509 53.3202 284.524 53.5892C283.538 53.858 282.16 53.9926 280.388 53.9926C277.088 53.9926 274.347 52.8723 272.166 50.6313C269.985 48.3909 268.894 45.5674 268.894 42.161C268.894 39.3602 269.447 37.0972 270.555 35.3714C271.662 33.6462 273.257 32.2791 275.339 31.2707C277.442 30.2403 279.956 29.5228 282.88 29.1195C285.803 28.7163 288.947 28.4027 292.314 28.1784V27.9767C292.314 25.8928 291.555 24.4533 290.038 23.6575C288.521 22.8624 286.246 22.4644 283.212 22.4644C281.838 22.4644 280.233 22.7164 278.395 23.2207C276.556 23.7248 274.763 24.3692 273.013 25.1534H272.017V16.0446C273.168 15.7084 275.028 15.3109 277.598 14.8514C280.166 14.3924 282.758 14.1624 285.371 14.1624C291.793 14.1624 296.471 15.2438 299.406 17.4059C302.34 19.5686 303.808 22.8679 303.808 27.3047V52.9844H292.247V48.9843H292.248ZM292.248 43.1358V35.2706C290.276 35.4723 288.681 35.646 287.464 35.7916C286.246 35.9376 285.05 36.2233 283.876 36.6487C282.857 37.0073 282.066 37.5509 281.501 38.2788C280.936 39.0073 280.654 39.9763 280.654 41.1863C280.654 42.9568 281.124 44.1726 282.066 44.8333C283.007 45.4945 284.396 45.8249 286.235 45.8249C287.253 45.8249 288.294 45.5896 289.357 45.119C290.42 44.6484 291.384 43.9876 292.248 43.1358Z" fill="#1A5AD9"/>
<path d="M346.432 33.783C346.432 39.9902 344.754 44.8807 341.399 48.4547C338.044 52.0292 333.298 53.8159 327.164 53.8159C321.074 53.8159 316.34 52.0292 312.963 48.4547C309.585 44.8808 307.897 39.9902 307.897 33.783C307.897 27.5091 309.585 22.5958 312.963 19.044C316.34 15.4927 321.074 13.7166 327.164 13.7166C333.277 13.7166 338.016 15.5037 341.382 19.0777C344.748 22.6521 346.432 27.5536 346.432 33.783ZM334.506 33.8501C334.506 31.6097 334.323 29.7442 333.958 28.2537C333.592 26.7637 333.088 25.5705 332.446 24.674C331.76 23.7329 330.985 23.0774 330.121 22.7077C329.257 22.338 328.272 22.1531 327.164 22.1531C326.123 22.1531 325.182 22.3158 324.341 22.6405C323.499 22.9656 322.724 23.5873 322.015 24.5059C321.351 25.3799 320.819 26.5788 320.421 28.1025C320.022 29.6265 319.823 31.5424 319.823 33.8501C319.823 36.1584 320.011 38.0238 320.387 39.4465C320.764 40.8698 321.251 42.0069 321.849 42.8582C322.469 43.7321 323.244 44.3707 324.174 44.7741C325.105 45.1774 326.134 45.3791 327.264 45.3791C328.194 45.3791 329.141 45.1774 330.104 44.7741C331.068 44.3708 331.837 43.7657 332.413 42.959C333.099 41.9959 333.62 40.8363 333.974 39.4801C334.328 38.1247 334.506 36.2482 334.506 33.8501Z" fill="#1A5AD9"/>
<path d="M385.264 52.9853H373.571V34.2633C373.571 32.7397 373.51 31.2215 373.388 29.7089C373.266 28.1964 373.039 27.0819 372.707 26.3644C372.309 25.5132 371.732 24.9024 370.98 24.5327C370.227 24.163 369.219 23.9781 367.957 23.9781C367.004 23.9781 366.041 24.1577 365.067 24.5158C364.092 24.8745 363.051 25.4459 361.944 26.23V52.9853H350.317V15.2389H361.944V19.4067C363.848 17.7713 365.703 16.494 367.508 15.5749C369.313 14.6563 371.312 14.1968 373.504 14.1968C377.313 14.1968 380.226 15.4126 382.241 17.8437C384.256 20.2754 385.264 23.7988 385.264 28.4147V52.9853H385.264Z" fill="#1A5AD9"/>
<path d="M165.96 77.8264V63.7643H170.712C171.815 63.7643 172.717 63.9635 173.417 64.3617C174.122 64.7554 174.644 65.2887 174.983 65.9615C175.321 66.6344 175.491 67.3851 175.491 68.2137C175.491 69.0422 175.321 69.7952 174.983 70.4727C174.648 71.1501 174.131 71.6903 173.431 72.0931C172.73 72.4913 171.833 72.6905 170.739 72.6905H167.334V71.1799H170.684C171.44 71.1799 172.046 71.0494 172.504 70.7885C172.962 70.5276 173.293 70.1751 173.499 69.7311C173.71 69.2825 173.815 68.7767 173.815 68.2137C173.815 67.6506 173.71 67.1471 173.499 66.7031C173.293 66.2591 172.959 65.9112 172.497 65.6594C172.035 65.4031 171.421 65.2749 170.657 65.2749H167.663V77.8264H165.96ZM182.185 78.0461C181.233 78.0461 180.398 77.8195 179.679 77.3664C178.965 76.9132 178.407 76.2792 178.004 75.4644C177.605 74.6496 177.406 73.6975 177.406 72.6081C177.406 71.5095 177.605 70.5505 178.004 69.7311C178.407 68.9117 178.965 68.2755 179.679 67.8223C180.398 67.3691 181.233 67.1425 182.185 67.1425C183.137 67.1425 183.97 67.3691 184.685 67.8223C185.403 68.2755 185.962 68.9117 186.36 69.7311C186.763 70.5505 186.964 71.5095 186.964 72.6081C186.964 73.6975 186.763 74.6496 186.36 75.4644C185.962 76.2792 185.403 76.9132 184.685 77.3664C183.97 77.8195 183.137 78.0461 182.185 78.0461ZM182.185 76.5905C182.909 76.5905 183.504 76.4051 183.97 76.0343C184.437 75.6635 184.783 75.176 185.007 74.5718C185.232 73.9676 185.344 73.313 185.344 72.6081C185.344 71.9031 185.232 71.2463 185.007 70.6375C184.783 70.0287 184.437 69.5366 183.97 69.1612C183.504 68.7859 182.909 68.5982 182.185 68.5982C181.462 68.5982 180.867 68.7859 180.4 69.1612C179.933 69.5366 179.588 70.0287 179.363 70.6375C179.139 71.2463 179.027 71.9031 179.027 72.6081C179.027 73.313 179.139 73.9676 179.363 74.5718C179.588 75.176 179.933 75.6635 180.4 76.0343C180.867 76.4051 181.462 76.5905 182.185 76.5905ZM191.468 77.8264L188.255 67.2799H189.958L192.237 75.3546H192.347L194.599 67.2799H196.33L198.554 75.3271H198.664L200.944 67.2799H202.647L199.433 77.8264H197.84L195.533 69.7242H195.368L193.061 77.8264H191.468ZM208.852 78.0461C207.836 78.0461 206.959 77.8218 206.222 77.3732C205.49 76.9201 204.925 76.2884 204.526 75.4782C204.133 74.6634 203.936 73.7158 203.936 72.6355C203.936 71.5552 204.133 70.6031 204.526 69.7792C204.925 68.9506 205.478 68.3052 206.188 67.8429C206.902 67.376 207.735 67.1425 208.687 67.1425C209.237 67.1425 209.779 67.2341 210.315 67.4172C210.85 67.6003 211.338 67.8978 211.777 68.3098C212.217 68.7172 212.567 69.2573 212.828 69.9302C213.089 70.6031 213.219 71.4317 213.219 72.4158V73.1024H205.089V71.7017H211.571C211.571 71.1067 211.452 70.5757 211.214 70.1088C210.981 69.6419 210.646 69.2734 210.212 69.0033C209.781 68.7332 209.273 68.5982 208.687 68.5982C208.042 68.5982 207.483 68.7584 207.012 69.0788C206.545 69.3947 206.186 69.8066 205.934 70.3147C205.682 70.8228 205.556 71.3676 205.556 71.9489V72.8827C205.556 73.6792 205.694 74.3544 205.968 74.9083C206.247 75.4576 206.634 75.8764 207.129 76.1648C207.623 76.4486 208.197 76.5905 208.852 76.5905C209.278 76.5905 209.662 76.531 210.006 76.412C210.353 76.2884 210.653 76.1053 210.905 75.8627C211.157 75.6155 211.351 75.3088 211.489 74.9426L213.054 75.382C212.889 75.913 212.612 76.3799 212.223 76.7827C211.834 77.181 211.354 77.4923 210.781 77.7166C210.209 77.9363 209.566 78.0461 208.852 78.0461ZM215.684 77.8264V67.2799H217.249V68.8728H217.359C217.552 68.351 217.899 67.9276 218.403 67.6026C218.907 67.2776 219.474 67.1151 220.106 67.1151C220.225 67.1151 220.374 67.1174 220.552 67.1219C220.731 67.1265 220.866 67.1334 220.957 67.1425V68.7904C220.902 68.7767 220.776 68.7561 220.58 68.7286C220.387 68.6966 220.184 68.6806 219.968 68.6806C219.456 68.6806 218.998 68.7881 218.595 69.0033C218.197 69.2139 217.881 69.5068 217.648 69.8822C217.419 70.2529 217.304 70.6764 217.304 71.1524V77.8264H215.684ZM226.979 78.0461C225.963 78.0461 225.086 77.8218 224.349 77.3732C223.617 76.9201 223.051 76.2884 222.653 75.4782C222.26 74.6634 222.063 73.7158 222.063 72.6355C222.063 71.5552 222.26 70.6031 222.653 69.7792C223.051 68.9506 223.605 68.3052 224.315 67.8429C225.029 67.376 225.862 67.1425 226.814 67.1425C227.363 67.1425 227.906 67.2341 228.441 67.4172C228.977 67.6003 229.465 67.8978 229.904 68.3098C230.343 68.7172 230.694 69.2573 230.954 69.9302C231.215 70.6031 231.346 71.4317 231.346 72.4158V73.1024H223.216V71.7017H229.698C229.698 71.1067 229.579 70.5757 229.341 70.1088C229.107 69.6419 228.773 69.2734 228.338 69.0033C227.908 68.7332 227.4 68.5982 226.814 68.5982C226.169 68.5982 225.61 68.7584 225.139 69.0788C224.672 69.3947 224.313 69.8066 224.061 70.3147C223.809 70.8228 223.683 71.3676 223.683 71.9489V72.8827C223.683 73.6792 223.82 74.3544 224.095 74.9083C224.374 75.4576 224.761 75.8764 225.256 76.1648C225.75 76.4486 226.324 76.5905 226.979 76.5905C227.405 76.5905 227.789 76.531 228.132 76.412C228.48 76.2884 228.78 76.1053 229.032 75.8627C229.284 75.6155 229.478 75.3088 229.616 74.9426L231.181 75.382C231.016 75.913 230.739 76.3799 230.35 76.7827C229.961 77.181 229.481 77.4923 228.908 77.7166C228.336 77.9363 227.693 78.0461 226.979 78.0461ZM237.793 78.0461C236.914 78.0461 236.139 77.8241 235.466 77.3801C234.793 76.9315 234.266 76.2998 233.886 75.485C233.506 74.6657 233.316 73.6975 233.316 72.5806C233.316 71.4729 233.506 70.5116 233.886 69.6968C234.266 68.882 234.795 68.2526 235.472 67.8086C236.15 67.3645 236.933 67.1425 237.821 67.1425C238.507 67.1425 239.05 67.257 239.448 67.4859C239.851 67.7101 240.158 67.9665 240.368 68.2549C240.583 68.5387 240.75 68.7721 240.869 68.9552H241.007V63.7643H242.627V77.8264H241.062V76.206H240.869C240.75 76.3982 240.581 76.6408 240.361 76.9338C240.142 77.2222 239.828 77.4808 239.421 77.7097C239.013 77.934 238.471 78.0461 237.793 78.0461ZM238.013 76.5905C238.663 76.5905 239.212 76.4211 239.661 76.0824C240.109 75.7391 240.451 75.2653 240.684 74.6611C240.917 74.0523 241.034 73.3496 241.034 72.5531C241.034 71.7658 240.92 71.0769 240.691 70.4864C240.462 69.8913 240.123 69.429 239.675 69.0994C239.226 68.7653 238.672 68.5982 238.013 68.5982C237.326 68.5982 236.754 68.7744 236.296 69.1269C235.843 69.4748 235.502 69.9485 235.273 70.5482C235.049 71.1433 234.937 71.8116 234.937 72.5531C234.937 73.3038 235.051 73.9859 235.28 74.5993C235.514 75.2081 235.857 75.6933 236.31 76.0549C236.768 76.412 237.336 76.5905 238.013 76.5905ZM251.478 77.8264V63.7643H253.098V68.9552H253.235C253.354 68.7721 253.519 68.5387 253.73 68.2549C253.945 67.9665 254.252 67.7101 254.65 67.4859C255.053 67.257 255.597 67.1425 256.284 67.1425C257.172 67.1425 257.955 67.3645 258.632 67.8086C259.31 68.2526 259.838 68.882 260.218 69.6968C260.598 70.5116 260.788 71.4729 260.788 72.5806C260.788 73.6975 260.598 74.6657 260.218 75.485C259.838 76.2998 259.312 76.9315 258.639 77.3801C257.966 77.8241 257.19 78.0461 256.312 78.0461C255.634 78.0461 255.092 77.934 254.684 77.7097C254.277 77.4808 253.963 77.2222 253.744 76.9338C253.524 76.6408 253.354 76.3982 253.235 76.206H253.043V77.8264H251.478ZM253.071 72.5531C253.071 73.3496 253.187 74.0523 253.421 74.6611C253.654 75.2653 253.995 75.7391 254.444 76.0824C254.893 76.4211 255.442 76.5905 256.092 76.5905C256.769 76.5905 257.335 76.412 257.788 76.0549C258.246 75.6933 258.589 75.2081 258.818 74.5993C259.051 73.9859 259.168 73.3038 259.168 72.5531C259.168 71.8116 259.053 71.1433 258.825 70.5482C258.6 69.9485 258.259 69.4748 257.802 69.1269C257.348 68.7744 256.778 68.5982 256.092 68.5982C255.433 68.5982 254.879 68.7653 254.43 69.0994C253.982 69.429 253.643 69.8913 253.414 70.4864C253.185 71.0769 253.071 71.7658 253.071 72.5531ZM263.933 81.7814C263.658 81.7814 263.414 81.7585 263.198 81.7127C262.983 81.6715 262.834 81.6303 262.752 81.5891L263.164 80.1609C263.558 80.2616 263.906 80.2983 264.208 80.2708C264.51 80.2433 264.778 80.1083 265.011 79.8657C265.249 79.6277 265.467 79.2409 265.663 78.7053L265.965 77.8813L262.065 67.2799H263.823L266.734 75.6841H266.844L269.756 67.2799H271.513L267.037 79.3645C266.835 79.9092 266.586 80.3601 266.288 80.7171C265.991 81.0787 265.645 81.3465 265.251 81.5205C264.862 81.6944 264.423 81.7814 263.933 81.7814ZM279.31 77.8264V63.7643H287.797V65.2749H281.013V70.0264H287.357V71.5369H281.013V76.3158H287.907V77.8264H279.31ZM299.27 67.2799L295.37 77.8264H293.722L289.822 67.2799H291.58L294.491 75.6841H294.601L297.512 67.2799H299.27ZM305.453 78.0461C304.437 78.0461 303.56 77.8218 302.823 77.3732C302.091 76.9201 301.526 76.2884 301.128 75.4782C300.734 74.6634 300.537 73.7158 300.537 72.6355C300.537 71.5552 300.734 70.6031 301.128 69.7792C301.526 68.9506 302.08 68.3052 302.789 67.8429C303.503 67.376 304.336 67.1425 305.288 67.1425C305.838 67.1425 306.38 67.2341 306.916 67.4172C307.451 67.6003 307.939 67.8978 308.378 68.3098C308.818 68.7172 309.168 69.2573 309.429 69.9302C309.69 70.6031 309.82 71.4317 309.82 72.4158V73.1024H301.691V71.7017H308.172C308.172 71.1067 308.053 70.5757 307.815 70.1088C307.582 69.6419 307.248 69.2734 306.813 69.0033C306.382 68.7332 305.874 68.5982 305.288 68.5982C304.643 68.5982 304.085 68.7584 303.613 69.0788C303.146 69.3947 302.787 69.8066 302.535 70.3147C302.283 70.8228 302.157 71.3676 302.157 71.9489V72.8827C302.157 73.6792 302.295 74.3544 302.569 74.9083C302.849 75.4576 303.235 75.8764 303.73 76.1648C304.224 76.4486 304.799 76.5905 305.453 76.5905C305.879 76.5905 306.263 76.531 306.607 76.412C306.955 76.2884 307.254 76.1053 307.506 75.8627C307.758 75.6155 307.953 75.3088 308.09 74.9426L309.655 75.382C309.491 75.913 309.214 76.3799 308.825 76.7827C308.435 77.181 307.955 77.4923 307.383 77.7166C306.81 77.9363 306.167 78.0461 305.453 78.0461ZM312.285 77.8264V67.2799H313.851V68.8728H313.961C314.153 68.351 314.501 67.9276 315.004 67.6026C315.508 67.2776 316.075 67.1151 316.707 67.1151C316.826 67.1151 316.975 67.1174 317.153 67.1219C317.332 67.1265 317.467 67.1334 317.558 67.1425V68.7904C317.504 68.7767 317.378 68.7561 317.181 68.7286C316.989 68.6966 316.785 68.6806 316.57 68.6806C316.057 68.6806 315.599 68.7881 315.196 69.0033C314.798 69.2139 314.482 69.5068 314.249 69.8822C314.02 70.2529 313.906 70.6764 313.906 71.1524V77.8264H312.285ZM323.58 78.0461C322.564 78.0461 321.687 77.8218 320.95 77.3732C320.218 76.9201 319.653 76.2884 319.254 75.4782C318.861 74.6634 318.664 73.7158 318.664 72.6355C318.664 71.5552 318.861 70.6031 319.254 69.7792C319.653 68.9506 320.207 68.3052 320.916 67.8429C321.63 67.376 322.463 67.1425 323.415 67.1425C323.965 67.1425 324.507 67.2341 325.043 67.4172C325.578 67.6003 326.066 67.8978 326.505 68.3098C326.945 68.7172 327.295 69.2573 327.556 69.9302C327.817 70.6031 327.947 71.4317 327.947 72.4158V73.1024H319.817V71.7017H326.299C326.299 71.1067 326.18 70.5757 325.942 70.1088C325.709 69.6419 325.375 69.2734 324.94 69.0033C324.509 68.7332 324.001 68.5982 323.415 68.5982C322.77 68.5982 322.211 68.7584 321.74 69.0788C321.273 69.3947 320.914 69.8066 320.662 70.3147C320.41 70.8228 320.284 71.3676 320.284 71.9489V72.8827C320.284 73.6792 320.422 74.3544 320.696 74.9083C320.976 75.4576 321.362 75.8764 321.857 76.1648C322.351 76.4486 322.926 76.5905 323.58 76.5905C324.006 76.5905 324.39 76.531 324.734 76.412C325.082 76.2884 325.381 76.1053 325.633 75.8627C325.885 75.6155 326.079 75.3088 326.217 74.9426L327.782 75.382C327.617 75.913 327.341 76.3799 326.951 76.7827C326.562 77.181 326.082 77.4923 325.51 77.7166C324.937 77.9363 324.294 78.0461 323.58 78.0461ZM337.883 69.6419L336.427 70.0538C336.335 69.8112 336.2 69.5755 336.022 69.3466C335.848 69.1132 335.61 68.9209 335.308 68.7698C335.006 68.6188 334.619 68.5433 334.147 68.5433C333.502 68.5433 332.964 68.692 332.534 68.9896C332.108 69.2825 331.895 69.6556 331.895 70.1088C331.895 70.5116 332.042 70.8297 332.335 71.0632C332.628 71.2966 333.085 71.4912 333.708 71.6468L335.273 72.0313C336.216 72.2602 336.919 72.6104 337.381 73.0818C337.844 73.5487 338.075 74.1507 338.075 74.8877C338.075 75.4919 337.901 76.032 337.553 76.5081C337.21 76.9842 336.729 77.3595 336.111 77.6342C335.493 77.9088 334.774 78.0461 333.955 78.0461C332.879 78.0461 331.989 77.8127 331.284 77.3458C330.579 76.8789 330.133 76.1968 329.945 75.2996L331.483 74.9151C331.63 75.4827 331.907 75.9084 332.314 76.1922C332.726 76.4761 333.264 76.618 333.928 76.618C334.683 76.618 335.282 76.4577 335.727 76.1373C336.175 75.8123 336.399 75.4232 336.399 74.9701C336.399 74.6039 336.271 74.2972 336.015 74.05C335.759 73.7982 335.365 73.6105 334.834 73.4869L333.076 73.075C332.11 72.8461 331.401 72.4913 330.948 72.0107C330.499 71.5255 330.275 70.919 330.275 70.1912C330.275 69.5961 330.442 69.0697 330.776 68.6119C331.115 68.1542 331.575 67.7948 332.156 67.5339C332.742 67.273 333.406 67.1425 334.147 67.1425C335.191 67.1425 336.01 67.3714 336.605 67.8292C337.205 68.2869 337.631 68.8911 337.883 69.6419ZM345.101 67.2799V68.6531H339.635V67.2799H345.101ZM341.228 64.7531H342.849V74.8053C342.849 75.263 342.915 75.6063 343.048 75.8352C343.185 76.0595 343.359 76.2106 343.57 76.2884C343.785 76.3616 344.011 76.3982 344.249 76.3982C344.428 76.3982 344.574 76.3891 344.689 76.3708C344.803 76.3479 344.895 76.3296 344.963 76.3158L345.293 77.7715C345.183 77.8127 345.03 77.8539 344.833 77.8951C344.636 77.9409 344.387 77.9637 344.084 77.9637C343.627 77.9637 343.178 77.8653 342.739 77.6685C342.304 77.4717 341.942 77.1718 341.654 76.769C341.37 76.3662 341.228 75.8581 341.228 75.2447V64.7531ZM349.687 63.7643V77.8264H347.984V63.7643H349.687ZM353.102 63.7643H355.134L359.913 75.437H360.078L364.857 63.7643H366.889V77.8264H365.296V67.1425H365.159L360.764 77.8264H359.226L354.832 67.1425H354.695V77.8264H353.102V63.7643ZM377.993 67.2799C377.911 66.5841 377.577 66.0439 376.991 65.6594C376.405 65.2749 375.686 65.0827 374.835 65.0827C374.212 65.0827 373.668 65.1834 373.201 65.3848C372.738 65.5862 372.377 65.8631 372.116 66.2156C371.86 66.5681 371.731 66.9686 371.731 67.4172C371.731 67.7925 371.821 68.1153 371.999 68.3853C372.182 68.6508 372.416 68.8728 372.7 69.0514C372.983 69.2253 373.281 69.3695 373.592 69.4839C373.903 69.5938 374.189 69.683 374.45 69.7517L375.879 70.1362C376.245 70.2323 376.652 70.3651 377.101 70.5345C377.554 70.7038 377.987 70.935 378.399 71.228C378.815 71.5163 379.158 71.8871 379.428 72.3403C379.699 72.7935 379.834 73.3496 379.834 74.0088C379.834 74.7686 379.634 75.4553 379.236 76.0687C378.843 76.682 378.266 77.1695 377.506 77.5312C376.751 77.8928 375.833 78.0736 374.753 78.0736C373.745 78.0736 372.873 77.9111 372.136 77.5861C371.404 77.2611 370.827 76.8079 370.406 76.2266C369.99 75.6452 369.754 74.9701 369.699 74.201H371.457C371.503 74.732 371.681 75.1715 371.992 75.5194C372.308 75.8627 372.706 76.119 373.187 76.2884C373.672 76.4532 374.194 76.5356 374.753 76.5356C375.403 76.5356 375.986 76.4303 376.503 76.2197C377.021 76.0046 377.43 75.707 377.732 75.3271C378.035 74.9426 378.186 74.494 378.186 73.9813C378.186 73.5144 378.055 73.1345 377.794 72.8415C377.533 72.5486 377.19 72.3105 376.764 72.1274C376.339 71.9443 375.879 71.7841 375.384 71.6468L373.654 71.1524C372.555 70.8366 371.686 70.3857 371.045 69.7998C370.404 69.2139 370.083 68.4471 370.083 67.4996C370.083 66.7123 370.296 66.0256 370.722 65.4397C371.152 64.8492 371.729 64.3915 372.452 64.0665C373.18 63.7369 373.993 63.5721 374.89 63.5721C375.796 63.5721 376.602 63.7346 377.307 64.0596C378.012 64.38 378.57 64.8195 378.982 65.3779C379.399 65.9364 379.618 66.5704 379.641 67.2799H377.993Z" fill="black"/>
</svg>
